<svg width="10" height="12" viewBox="0 0 10 12" fill="none" xmlns="http://www.w3.org/2000/svg">
<path fill-rule="evenodd" clip-rule="evenodd" d="M3.44349 7.071C1.81849 7.071 0.198486 7.8585 0.198486 7.8585L2.95649 0.3635C3.04099 0.1425 3.16849 0 3.34849 0H6.65149C6.83149 0 6.96499 0.1425 7.04399 0.3635L9.8015 7.8585C9.8015 7.8585 8.48099 7.071 6.55599 7.071L5.33099 3.2885C5.28499 3.1055 5.15099 2.9815 4.99999 2.9815C4.84899 2.9815 4.71499 3.1055 4.66899 3.2885L3.44349 7.071Z" fill="#202020"/>
<path d="M2.65999 7.60889C2.41311 8.42247 2.58572 9.54506 3.17799 10.0804C3.18649 10.0499 3.19449 10.0244 3.20049 9.99789C3.27449 9.65839 3.55449 9.44289 3.90799 9.45289C4.25249 9.46289 4.43549 9.63489 4.48849 10.0194C4.51049 10.1774 4.51049 10.3384 4.51249 10.4984C4.51278 10.8209 4.60733 11.1364 4.78449 11.4059C4.95477 11.6694 5.19968 11.8762 5.48799 11.9999L5.46599 11.9259C5.23949 11.2399 5.40249 10.7684 6.00499 10.3664C6.20149 10.2354 6.40249 10.1114 6.59249 9.97289C7.06749 9.62589 7.36649 9.16839 7.43649 8.57589C7.46549 8.33239 7.44399 8.09389 7.36099 7.85739C7.25099 7.92289 7.15799 7.98839 7.05699 8.03739C6.17599 8.46489 5.24449 8.51789 4.29599 8.37639C3.68149 8.28489 3.08799 8.12189 2.65999 7.60889Z" fill="#F95E01"/>
</svg>
