<svg width="20" height="18" viewBox="0 0 20 18" fill="none" xmlns="http://www.w3.org/2000/svg">
<path d="M10.427 10.0112C10.464 9.34423 10.79 8.75723 11.283 8.34023C11.8006 7.90963 12.4537 7.67593 13.127 7.68023C13.837 7.68023 14.487 7.93023 14.972 8.34023C15.464 8.75723 15.791 9.34523 15.828 10.0112C15.866 10.6972 15.591 11.3342 15.107 11.8062C14.5742 12.3145 13.8643 12.595 13.128 12.5882C12.391 12.5954 11.6803 12.3149 11.147 11.8062C10.664 11.3342 10.388 10.6972 10.427 10.0112Z" fill="#003AA8"/>
<path d="M6.12389 11.3609C6.12889 11.6209 6.21289 12.1279 6.33689 12.5249C6.60707 13.3788 7.06028 14.1633 7.66489 14.8239C8.313 15.5372 9.1047 16.1053 9.9879 16.4909C10.9486 16.9148 11.9879 17.1311 13.0379 17.1259C14.0889 17.1272 15.1284 16.9075 16.0889 16.4809C16.9709 16.0906 17.7616 15.5201 18.4099 14.8059C19.0133 14.1432 19.4657 13.3575 19.7359 12.5029C19.8678 12.0855 19.9517 11.6544 19.9859 11.2179C20.0802 9.956 19.7691 8.6968 19.0979 7.6239C18.6883 6.96892 18.1651 6.39222 17.5529 5.92095L17.5539 5.91995L11.3049 1.12095L11.2889 1.10695C10.8779 0.792946 10.1879 0.793947 9.7379 1.10895C9.2809 1.42795 9.2299 1.95495 9.6339 2.28895L9.6329 2.28995L12.2389 4.41095L4.29589 4.41995H4.28389C3.62789 4.41995 2.99689 4.85195 2.87189 5.39595C2.74389 5.95095 3.18989 6.41095 3.87289 6.41295L3.87189 6.41595L7.89889 6.40795L0.710894 11.9239L0.683894 11.9449C0.00689429 12.4639 -0.212106 13.3269 0.213894 13.8739C0.647894 14.4299 1.56789 14.4299 2.25389 13.8759L6.17589 10.6669C6.17589 10.6669 6.11989 11.0999 6.12389 11.3609ZM16.2019 12.8109C15.3939 13.6349 14.2639 14.1019 13.0389 14.1039C11.8129 14.1059 10.6829 13.6429 9.8739 12.8209C9.4915 12.4381 9.1967 11.9768 9.0099 11.4689C8.8335 10.986 8.7655 10.4701 8.8109 9.9579C8.8549 9.4529 9.0039 8.9709 9.2449 8.5359C9.4809 8.1069 9.8069 7.7209 10.2069 7.3919C11.0092 6.74678 12.0094 6.39786 13.0389 6.40395C14.0674 6.39567 15.0675 6.74173 15.8709 7.3839C16.2699 7.7099 16.5959 8.0949 16.8319 8.5229C17.0719 8.9589 17.2219 9.4389 17.2659 9.9439C17.311 10.456 17.2434 10.9718 17.0679 11.4549C16.8792 11.9635 16.5839 12.4259 16.2019 12.8109Z" fill="#FF7021"/>
</svg>
