<svg width="18" height="18" viewBox="0 0 18 18" fill="none" xmlns="http://www.w3.org/2000/svg">
<path d="M15.0021 -0.00292969H2.99907C2.20345 -0.000549688 1.44111 0.31663 0.87861 0.87931C0.31611 1.442 -0.000819687 2.20445 -0.00292969 3.00007V15.0021C-2.96875e-05 15.7973 0.31721 16.5591 0.8796 17.1212C1.44198 17.6834 2.20387 18.0004 2.99907 18.0031H15.0021C15.7971 18.0002 16.5587 17.6831 17.1209 17.1209C17.6831 16.5587 18.0002 15.7971 18.0031 15.0021V3.00007C18.0007 2.2047 17.6838 1.44256 17.1216 0.87995C16.5594 0.31735 15.7974 -2.96875e-05 15.0021 -0.00292969ZM13.3621 12.6441C13.2101 13.0041 12.9731 13.3241 12.6691 13.5711C12.3096 13.8503 11.9003 14.0586 11.4631 14.1851C10.9731 14.3361 10.3891 14.4141 9.7131 14.4141H4.88807V3.90907H9.9911C10.9341 3.90907 11.6911 4.12207 12.2581 4.55507C12.8271 4.99107 13.1121 5.63707 13.1121 6.51307C13.1121 7.0411 12.9821 7.4961 12.7231 7.8701C12.4641 8.2431 12.0931 8.5341 11.6121 8.7381V8.7721C12.2541 8.9071 12.7491 9.2101 13.0761 9.6841C13.4031 10.1571 13.5691 10.7531 13.5691 11.4731C13.5691 11.8781 13.4911 12.2611 13.3441 12.6201L13.3641 12.6411V12.6441H13.3621ZM11.2781 10.0551C10.9691 9.7731 10.5391 9.6361 9.9811 9.6361H6.73707V12.9121H9.9901C10.5441 12.9121 10.9811 12.7681 11.2881 12.4771C11.5961 12.1881 11.7521 11.7761 11.7521 11.2481C11.7471 10.7301 11.5961 10.3291 11.2881 10.0551H11.2741H11.2781ZM10.8271 7.9361C11.1261 7.6851 11.2711 7.3231 11.2711 6.85207C11.2711 6.32607 11.1401 5.95007 10.8741 5.73607C10.6101 5.52207 10.2281 5.41007 9.7281 5.41007H6.72707V8.3081H9.7281C10.1641 8.3091 10.5381 8.1811 10.8271 7.9361Z" fill="#7210F4"/>
</svg>
