<svg width="20" height="16" viewBox="0 0 20 16" fill="none" xmlns="http://www.w3.org/2000/svg">
<path d="M18.1701 5.82033C17.8885 5.81877 17.6074 5.8422 17.3301 5.89033C17.2576 5.45243 17.0926 5.03503 16.846 4.666C16.5994 4.29697 16.2769 3.98479 15.9001 3.75033L15.6201 3.59033L15.4301 3.86033C15.1914 4.22394 15.0188 4.62677 14.9201 5.05033C14.8214 5.42337 14.7997 5.81262 14.8565 6.19434C14.9132 6.57604 15.0471 6.94214 15.2501 7.27034C14.7921 7.47444 14.3007 7.59304 13.8001 7.62034H0.630056C0.464686 7.62034 0.305936 7.68534 0.188076 7.80134C0.0702063 7.91734 0.0026763 8.07494 5.62978e-05 8.24034C-0.0122537 9.39604 0.184226 10.5444 0.580056 11.6303C0.935376 12.6972 1.63998 13.6132 2.58006 14.2303C3.94645 14.9238 5.46936 15.2512 7.00006 15.1803C7.81053 15.1943 8.6206 15.1341 9.4201 15.0003C10.5407 14.7997 11.6192 14.4108 12.6101 13.8503C13.4281 13.3543 14.1609 12.7296 14.7801 12.0003C15.7035 10.9139 16.4249 9.67104 16.9101 8.33034H17.1001C17.5089 8.34544 17.9167 8.27894 18.2996 8.13474C18.6825 7.99054 19.0328 7.77144 19.3301 7.49034C19.5896 7.24834 19.7913 6.95104 19.9201 6.62034L20.0001 6.40034L19.8001 6.24034C19.3156 5.92956 18.7443 5.78235 18.1701 5.82033Z" fill="#039CFC"/>
<path d="M3.60994 5.34993H1.84994C1.80918 5.34985 1.76993 5.36533 1.7402 5.39321C1.71046 5.42108 1.69249 5.45925 1.68994 5.49993V7.0799C1.69249 7.1206 1.71046 7.1588 1.7402 7.1867C1.76993 7.2145 1.80918 7.23 1.84994 7.2299H3.60994C3.6507 7.23 3.68995 7.2145 3.71968 7.1867C3.74942 7.1588 3.76739 7.1206 3.76994 7.0799V5.49993C3.76739 5.45925 3.74942 5.42108 3.71968 5.39321C3.68995 5.36533 3.6507 5.34985 3.60994 5.34993ZM6.04994 5.34993H4.27994C4.23918 5.34985 4.19993 5.36533 4.1702 5.39321C4.14046 5.42108 4.12249 5.45925 4.11994 5.49993V7.0799C4.12249 7.1206 4.14046 7.1588 4.1702 7.1867C4.19993 7.2145 4.23918 7.23 4.27994 7.2299H6.04994C6.08972 7.2299 6.12788 7.2141 6.15601 7.186C6.18414 7.1579 6.19994 7.1197 6.19994 7.0799V5.49993C6.19994 5.46015 6.18414 5.422 6.15601 5.39387C6.12788 5.36574 6.08972 5.34993 6.04994 5.34993ZM8.5199 5.34993H6.74994C6.71016 5.34993 6.67201 5.36574 6.64388 5.39387C6.61575 5.422 6.59994 5.46015 6.59994 5.49993V7.0799C6.59994 7.1197 6.61575 7.1579 6.64388 7.186C6.67201 7.2141 6.71016 7.2299 6.74994 7.2299H8.5199C8.5597 7.2299 8.5979 7.2141 8.626 7.186C8.6541 7.1579 8.6699 7.1197 8.6699 7.0799V5.49993C8.6699 5.46015 8.6541 5.422 8.626 5.39387C8.5979 5.36574 8.5597 5.34993 8.5199 5.34993ZM9.1899 5.34993C9.1672 5.34363 9.1433 5.34277 9.1202 5.34743C9.0971 5.35209 9.0754 5.36213 9.0569 5.37674C9.0384 5.39135 9.0236 5.41012 9.0137 5.43153C9.0038 5.45293 8.9991 5.47637 8.9999 5.49993V7.0799C8.9999 7.0996 9.0038 7.1191 9.0114 7.1373C9.0189 7.1555 9.0299 7.1721 9.0439 7.186C9.0578 7.1999 9.0743 7.211 9.0925 7.2185C9.1107 7.2261 9.1302 7.2299 9.1499 7.2299H10.9999C11.0397 7.2299 11.0779 7.2141 11.106 7.186C11.1341 7.1579 11.1499 7.1197 11.1499 7.0799V5.49993C11.1499 5.46015 11.1341 5.422 11.106 5.39387C11.0779 5.36574 11.0397 5.34993 10.9999 5.34993H9.1899ZM4.27994 3.08993H5.99994C6.04238 3.08993 6.08307 3.10679 6.11308 3.13679C6.14308 3.1668 6.15994 3.2075 6.15994 3.24993V4.80993C6.16441 4.83331 6.1636 4.85738 6.15759 4.8804C6.15157 4.90343 6.1405 4.92482 6.12517 4.94302C6.10984 4.96122 6.09065 4.97577 6.06898 4.98562C6.04732 4.99547 6.02373 5.00035 5.99994 4.99993H4.27994C4.24016 4.99993 4.20201 4.98413 4.17388 4.956C4.14574 4.92787 4.12994 4.88971 4.12994 4.84993V3.23993C4.12994 3.22023 4.13382 3.20073 4.14136 3.18253C4.1489 3.16433 4.15995 3.14779 4.17388 3.13387C4.1878 3.11994 4.20434 3.10889 4.22254 3.10135C4.24074 3.09381 4.26024 3.08993 4.27994 3.08993ZM6.74994 3.08993H8.5199C8.5396 3.08993 8.5591 3.09381 8.5773 3.10135C8.5955 3.10889 8.6121 3.11994 8.626 3.13387C8.6399 3.14779 8.651 3.16433 8.6585 3.18253C8.6661 3.20073 8.6699 3.22023 8.6699 3.23993V4.80993C8.6699 4.85237 8.6531 4.89306 8.6231 4.92307C8.5931 4.95307 8.5524 4.96993 8.5099 4.96993H6.74994C6.71016 4.96993 6.67201 4.95413 6.64388 4.926C6.61575 4.89787 6.59994 4.85971 6.59994 4.81993V3.23993C6.59994 3.22023 6.60382 3.20073 6.61136 3.18253C6.6189 3.16433 6.62995 3.14779 6.64388 3.13387C6.6578 3.11994 6.67434 3.10889 6.69254 3.10135C6.71074 3.09381 6.73024 3.08993 6.74994 3.08993ZM9.1899 3.08993H10.9999C11.0196 3.08993 11.0391 3.09381 11.0573 3.10135C11.0755 3.10889 11.0921 3.11994 11.106 3.13387C11.1199 3.14779 11.131 3.16433 11.1385 3.18253C11.1461 3.20073 11.1499 3.22023 11.1499 3.23993V4.80993C11.1562 4.83265 11.1571 4.85654 11.1524 4.87966C11.1478 4.90278 11.1377 4.92447 11.1231 4.94298C11.1085 4.96149 11.0898 4.97629 11.0683 4.98618C11.0469 4.99608 11.0235 5.00079 10.9999 4.99993H9.1899C9.1638 5.00554 9.1367 5.00451 9.1111 4.99694C9.0855 4.98938 9.0621 4.97552 9.0432 4.95663C9.0244 4.93774 9.0105 4.91441 9.0029 4.88879C8.9954 4.86317 8.9943 4.83606 8.9999 4.80993V3.23993C8.9991 3.21637 9.0038 3.19293 9.0137 3.17153C9.0236 3.15012 9.0384 3.13135 9.0569 3.11674C9.0754 3.10213 9.0971 3.09209 9.1202 3.08743C9.1433 3.08277 9.1672 3.08363 9.1899 3.08993Z" fill="#039CFC"/>
<path d="M10.96 0.820312H9.18998C9.10718 0.820312 9.03998 0.887473 9.03998 0.970313V2.55031C9.03998 2.63315 9.10718 2.70031 9.18998 2.70031H10.96C11.0429 2.70031 11.11 2.63315 11.11 2.55031V0.970313C11.11 0.887473 11.0429 0.820312 10.96 0.820312Z" fill="#039CFC"/>
<path d="M11.65 5.3501C11.6102 5.3501 11.5721 5.3659 11.5439 5.39403C11.5158 5.42216 11.5 5.46031 11.5 5.5001V7.0801C11.5 7.1199 11.5158 7.158 11.5439 7.1862C11.5721 7.2143 11.6102 7.2301 11.65 7.2301H13.42C13.4397 7.2301 13.4592 7.2262 13.4774 7.2187C13.4956 7.2111 13.5121 7.2001 13.5261 7.1862C13.54 7.1722 13.551 7.1557 13.5586 7.1375C13.5661 7.1193 13.57 7.0998 13.57 7.0801V5.5001C13.57 5.4804 13.5661 5.46089 13.5586 5.44269C13.551 5.4245 13.54 5.40796 13.5261 5.39403C13.5121 5.3801 13.4956 5.36905 13.4774 5.36152C13.4592 5.35398 13.4397 5.3501 13.42 5.3501H11.65Z" fill="#039CFC"/>
</svg>
