<svg width="24" height="24" viewBox="0 0 24 24" fill="none" xmlns="http://www.w3.org/2000/svg">
<path d="M21.62 11.108L12.889 2.37903C12.6469 2.138 12.3191 2.00269 11.9775 2.00269C11.6359 2.00269 11.3081 2.138 11.066 2.37903L9.257 4.19003L11.556 6.49003C11.8272 6.39837 12.1188 6.38457 12.3974 6.45017C12.6761 6.51578 12.9309 6.65817 13.1328 6.86119C13.3346 7.06422 13.4756 7.31976 13.5396 7.59882C13.6036 7.87788 13.5882 8.1693 13.495 8.44003L15.709 10.657C16.0368 10.542 16.394 10.542 16.7218 10.6569C17.0496 10.7718 17.3285 10.9949 17.5128 11.2894C17.697 11.5839 17.7755 11.9324 17.7353 12.2774C17.6952 12.6225 17.5389 12.9436 17.292 13.188C16.693 13.788 15.726 13.788 15.126 13.188C14.9129 12.9747 14.7673 12.7033 14.7073 12.4077C14.6474 12.1122 14.6758 11.8055 14.789 11.526L12.715 9.46303V14.9C12.861 14.971 13.001 15.069 13.122 15.19C13.4079 15.478 13.5684 15.8673 13.5684 16.273C13.5684 16.6788 13.4079 17.0681 13.122 17.356C12.9793 17.4989 12.8099 17.6123 12.6234 17.6896C12.4369 17.767 12.2369 17.8068 12.035 17.8068C11.8331 17.8068 11.6331 17.767 11.4466 17.6896C11.2601 17.6123 11.0907 17.4989 10.948 17.356C10.8056 17.2141 10.6927 17.0454 10.6156 16.8598C10.5386 16.6741 10.4989 16.4751 10.4989 16.274C10.4989 16.073 10.5386 15.8739 10.6156 15.6883C10.6927 15.5026 10.8056 15.334 10.948 15.192C11.1 15.042 11.27 14.928 11.452 14.853V9.36303C11.265 9.28648 11.0951 9.17363 10.952 9.03101C10.8089 8.88839 10.6955 8.71882 10.6183 8.5321C10.5411 8.34539 10.5017 8.14523 10.5023 7.94319C10.503 7.74116 10.5436 7.54125 10.622 7.35503L8.362 5.08403L2.375 11.066C1.875 11.57 1.875 12.386 2.375 12.89L11.106 21.619C11.2255 21.7388 11.3674 21.8338 11.5236 21.8986C11.6798 21.9635 11.8473 21.9968 12.0165 21.9968C12.1857 21.9968 12.3532 21.9635 12.5094 21.8986C12.6656 21.8338 12.8075 21.7388 12.927 21.619L21.617 12.93C21.7374 12.8109 21.8329 12.6691 21.8983 12.5129C21.9636 12.3566 21.9974 12.189 21.9977 12.0197C21.9979 11.8503 21.9647 11.6826 21.8999 11.5261C21.8351 11.3697 21.74 11.2276 21.62 11.108Z" fill="#F05133"/>
</svg>
