<svg width="12" height="12" viewBox="0 0 12 12" fill="none" xmlns="http://www.w3.org/2000/svg">
<g clip-path="url(#clip0_32_45)">
<path d="M3.83294 7.43562C3.95144 7.50912 5.74194 7.87312 6.17944 7.94562C6.33094 7.97762 6.22344 8.13362 6.01444 8.23912C5.54294 8.36462 3.25594 7.43562 3.83294 7.43562ZM6.65644 0.803616L8.40894 2.58362C8.57544 2.75362 8.57294 3.08262 8.47994 3.17712L7.60994 2.48112L7.43894 3.51162L6.71144 3.12812L5.54744 3.86312L5.16194 2.31312L4.53644 3.39512H3.57994C3.18994 3.39512 3.14444 2.90012 3.49844 2.54612C4.11694 1.87862 4.82694 1.19812 5.21294 0.803616C5.60094 0.407116 6.27644 0.418616 6.65644 0.803616ZM4.89294 0.485116L0.462936 5.01812C-1.03356 6.87162 1.48194 6.65612 2.55994 7.18962C2.94694 7.58512 1.07744 7.87712 1.46444 8.27262C1.85094 8.66812 3.80344 9.03462 4.19094 9.42962C4.57744 9.82512 3.39894 10.2446 3.78594 10.6396C4.17244 11.0356 5.06744 10.6606 5.23494 11.5736C5.35394 12.2256 6.84694 11.8536 7.57694 11.3196C7.96394 10.9241 6.83694 10.9611 7.22394 10.5656C8.18544 9.58212 9.08144 10.2086 9.41044 9.22262C9.57294 8.73562 7.99444 8.47212 8.38194 8.07662C9.49494 7.42662 13.3414 7.00362 11.5159 5.17862L6.92494 0.485116C6.36344 -0.0538836 5.42544 -0.0598836 4.89294 0.485116ZM9.98144 9.22262C9.98144 9.44762 11.6384 9.59512 11.6384 9.16962C11.4024 8.48662 10.1774 8.53262 9.98144 9.22262ZM2.51744 10.4176C2.90944 10.7571 3.51594 10.3331 3.69744 9.85962C3.31744 9.35462 1.89394 9.87812 2.51744 10.4176ZM9.77344 9.68462C9.26794 10.1386 9.83044 10.5986 10.3289 10.3056C10.4399 10.1931 10.3254 9.79762 9.77344 9.68462Z" fill="#2C2C2C"/>
</g>
<defs>
<clipPath id="clip0_32_45">
<rect width="12" height="12" fill="white"/>
</clipPath>
</defs>
</svg>
