<svg width="12" height="10" viewBox="0 0 12 10" fill="none" xmlns="http://www.w3.org/2000/svg">
<path d="M8.2025 1.75026C8.145 1.75026 8.106 1.75726 8.0655 1.76676V1.77326H8.0725C8.0995 1.82526 8.1455 1.86326 8.1795 1.90976C8.2065 1.96326 8.2295 2.01676 8.2565 2.06976L8.2635 2.06226C8.3105 2.02926 8.3335 1.97626 8.3335 1.89576C8.3135 1.87226 8.3105 1.84876 8.2935 1.82576C8.2735 1.79226 8.2305 1.77576 8.2035 1.74926L8.2025 1.75026ZM2.885 8.34726H2.4215C2.40847 7.61065 2.36342 6.87496 2.2865 6.14226H2.2825L1.5775 8.34726H1.225L0.525 6.14226H0.52C0.465247 6.87611 0.432732 7.61145 0.4225 8.34726H0C0.0275 7.36426 0.096 6.44226 0.205 5.58226H0.78L1.4475 7.61426H1.4515L2.125 5.58226H2.6725C2.7935 6.58976 2.8645 7.51226 2.8865 8.34726H2.885ZM4.8935 6.30726C4.7045 7.32976 4.4555 8.07376 4.1475 8.53726C3.9065 8.89526 3.6425 9.07376 3.356 9.07376C3.2795 9.07376 3.186 9.05076 3.073 9.00476V8.75776C3.128 8.76626 3.193 8.77076 3.266 8.77076C3.4 8.77076 3.5075 8.73326 3.5895 8.65976C3.688 8.56976 3.737 8.46876 3.737 8.35726C3.737 8.27976 3.6985 8.12226 3.622 7.88526L3.115 6.30726H3.57L3.9335 7.48726C4.0155 7.75526 4.05 7.94226 4.036 8.04876C4.236 7.51676 4.375 6.93526 4.4535 6.30726H4.8935ZM11.056 8.34726H9.741V5.58226H10.1835V8.00726H11.056V8.34726ZM9.396 8.41476L8.888 8.16476C8.933 8.12676 8.9765 8.08576 9.0155 8.03976C9.232 7.78676 9.3395 7.41076 9.3395 6.91326C9.3395 5.99826 8.9805 5.54026 8.262 5.54026C7.91 5.54026 7.635 5.65626 7.437 5.88876C7.222 6.14276 7.114 6.51676 7.114 7.01126C7.114 7.49726 7.209 7.85426 7.401 8.08126C7.576 8.28626 7.8395 8.38876 8.1925 8.38876C8.3245 8.38876 8.4455 8.37226 8.555 8.33976L9.2175 8.72576L9.3975 8.41476H9.396ZM7.75 7.79376C7.6375 7.61376 7.5815 7.32376 7.5815 6.92576C7.5815 6.22926 7.7935 5.88076 8.2165 5.88076C8.438 5.88076 8.6015 5.96426 8.705 6.13076C8.817 6.31176 8.873 6.59876 8.873 6.99226C8.873 7.69426 8.661 8.04626 8.238 8.04626C8.0155 8.04626 7.853 7.96276 7.749 7.79626L7.75 7.79376ZM6.921 7.58126C6.921 7.81626 6.835 8.00926 6.663 8.15926C6.491 8.30926 6.2615 8.38426 5.971 8.38426C5.6995 8.38426 5.439 8.29826 5.1845 8.12676L5.303 7.88876C5.522 7.99876 5.7195 8.05276 5.898 8.05276C6.064 8.05276 6.1945 8.01626 6.2895 7.94276C6.33698 7.90697 6.37532 7.86045 6.40139 7.80701C6.42746 7.75357 6.44052 7.69472 6.4395 7.63526C6.4395 7.47026 6.3245 7.33026 6.1155 7.21276C5.9215 7.10626 5.534 6.88426 5.534 6.88426C5.323 6.73076 5.218 6.56626 5.218 6.29576C5.218 6.07076 5.2965 5.89076 5.453 5.75326C5.6105 5.61426 5.813 5.54576 6.063 5.54576C6.319 5.54576 6.553 5.61376 6.763 5.75076L6.6565 5.98876C6.4887 5.91505 6.30776 5.87594 6.1245 5.87376C5.983 5.87376 5.8735 5.90776 5.7975 5.97676C5.75893 6.00871 5.72784 6.04873 5.70642 6.094C5.68499 6.13927 5.67376 6.18868 5.6735 6.23876C5.6735 6.40276 5.7905 6.54376 6.0065 6.66376C6.203 6.77126 6.6 6.99876 6.6 6.99876C6.8165 7.15126 6.924 7.31376 6.924 7.58276L6.921 7.58126ZM11.612 4.65526C11.3445 4.64826 11.137 4.67526 10.9635 4.74926C10.9135 4.76926 10.8335 4.76926 10.8265 4.83276C10.854 4.85926 10.858 4.90276 10.8815 4.93976C10.9215 5.00676 10.9905 5.09626 11.0545 5.14326C11.1245 5.19826 11.1945 5.25126 11.268 5.29826C11.398 5.37826 11.5455 5.42576 11.673 5.50626C11.7455 5.55326 11.8195 5.61276 11.893 5.66276C11.9295 5.68776 11.953 5.73276 12 5.74876V5.73876C11.977 5.70876 11.97 5.66526 11.9475 5.63176C11.914 5.59826 11.8805 5.56826 11.8475 5.53526C11.7493 5.4059 11.6322 5.29211 11.5 5.19776C11.393 5.12476 11.159 5.02276 11.115 4.90026L11.1085 4.89326C11.1815 4.88676 11.2685 4.86026 11.3385 4.84026C11.452 4.81026 11.556 4.81676 11.6735 4.78726C11.7265 4.77376 11.78 4.75726 11.8335 4.74026V4.71026C11.7735 4.65026 11.7285 4.56876 11.6665 4.51276C11.4934 4.3615 11.3089 4.22391 11.1145 4.10126C11.0095 4.03426 10.8765 3.99126 10.766 3.93426C10.726 3.91426 10.659 3.90426 10.636 3.87076C10.576 3.79776 10.541 3.70076 10.4985 3.61376C10.4003 3.42331 10.3091 3.22935 10.225 3.03226C10.165 2.90126 10.1285 2.77076 10.055 2.65076C9.71 2.08226 9.3365 1.73776 8.762 1.40076C8.6385 1.33076 8.4905 1.30076 8.334 1.26376C8.2505 1.25976 8.167 1.25376 8.084 1.25026C8.029 1.22676 7.976 1.16326 7.929 1.13276C7.739 1.01276 7.247 0.752759 7.107 1.09676C7.017 1.31376 7.2405 1.52776 7.318 1.63776C7.3755 1.71426 7.448 1.80176 7.488 1.88776C7.5115 1.94576 7.518 2.00526 7.5415 2.06576C7.5945 2.21276 7.645 2.37676 7.715 2.51426C7.7515 2.58426 7.7915 2.65776 7.8385 2.72076C7.8655 2.75726 7.9115 2.77426 7.922 2.83426C7.875 2.90226 7.872 3.00126 7.845 3.08426C7.725 3.46276 7.772 3.93076 7.942 4.20926C7.9955 4.29226 8.123 4.47626 8.2935 4.40576C8.4435 4.34576 8.4105 4.15576 8.4535 3.98826C8.4635 3.94826 8.457 3.92176 8.4775 3.89476V3.90226C8.5245 3.99626 8.5715 4.08576 8.6145 4.17976C8.7175 4.34376 8.8975 4.51376 9.048 4.62726C9.128 4.68726 9.1915 4.79126 9.2915 4.82826V4.81826H9.284C9.2625 4.78926 9.234 4.77526 9.207 4.75176C9.1436 4.6897 9.0851 4.62284 9.032 4.55176C8.89112 4.35927 8.76621 4.15559 8.6585 3.94276C8.6035 3.83776 8.5575 3.72476 8.5135 3.62126C8.4935 3.58126 8.4935 3.52126 8.46 3.50126C8.41 3.57426 8.3365 3.63776 8.3 3.72776C8.2365 3.87176 8.23 4.04876 8.206 4.23276C8.1925 4.23626 8.199 4.23276 8.1925 4.23976C8.0855 4.21376 8.049 4.10276 8.009 4.00976C7.909 3.77226 7.8925 3.39076 7.979 3.11726C8.0025 3.04726 8.1025 2.82626 8.0625 2.75926C8.0415 2.69576 7.9755 2.65926 7.939 2.60776C7.89205 2.54073 7.85185 2.46922 7.819 2.39426C7.739 2.20726 7.699 2.00026 7.612 1.81326C7.572 1.72676 7.502 1.63626 7.445 1.55676C7.3815 1.46676 7.3115 1.40326 7.261 1.29676C7.2445 1.26026 7.221 1.19976 7.2475 1.15976C7.2545 1.13276 7.2685 1.12226 7.2945 1.11476C7.3385 1.07876 7.462 1.12576 7.5055 1.14576C7.629 1.19576 7.733 1.24276 7.8365 1.31276C7.8835 1.34576 7.934 1.40926 7.994 1.42576H8.064C8.171 1.44926 8.2915 1.43276 8.3915 1.46226C8.569 1.51926 8.729 1.60226 8.8725 1.69226C9.31467 1.97472 9.67432 2.36904 9.915 2.83526C9.955 2.91226 9.9725 2.98276 10.009 3.06276C10.079 3.22776 10.1655 3.39426 10.2365 3.55376C10.3065 3.71126 10.374 3.87176 10.4745 4.00226C10.5245 4.07226 10.7255 4.10876 10.8155 4.14526C10.882 4.17526 10.9855 4.20276 11.0455 4.23926C11.1605 4.30926 11.2725 4.38926 11.3805 4.46626C11.4355 4.50426 11.602 4.58776 11.612 4.65526Z" fill="#00618B"/>
</svg>
