<svg width="18" height="18" viewBox="0 0 18 18" fill="none" xmlns="http://www.w3.org/2000/svg">
<path d="M6.58492 8.692H10.9129C10.9129 8.692 13.3449 8.731 13.3449 6.342V2.391C13.3449 2.391 13.7139 0 8.9359 0C4.36192 0 4.64692 1.983 4.64692 1.983L4.65292 4.038H9.0159V4.655H2.91992C2.91992 4.655 -0.00708008 4.323 -0.00708008 8.937C-0.00708008 13.551 2.54792 13.387 2.54792 13.387H4.07192V11.246C4.07192 11.246 3.98892 8.692 6.58492 8.692ZM6.52892 2.952C6.32073 2.952 6.12106 2.86929 5.97384 2.72208C5.82662 2.57486 5.74392 2.37519 5.74392 2.167C5.74392 1.9588 5.82662 1.75914 5.97384 1.61192C6.12106 1.46471 6.32073 1.382 6.52892 1.382C6.73712 1.382 6.93678 1.46471 7.084 1.61192C7.2312 1.75914 7.3139 1.9588 7.3139 2.167C7.3139 2.37519 7.2312 2.57486 7.084 2.72208C6.93678 2.86929 6.73712 2.952 6.52892 2.952Z" fill="#336C9A"/>
<path d="M15.452 4.53196H13.928V6.67296C13.928 6.67296 14.011 9.227 11.415 9.227H7.087C7.087 9.227 4.65504 9.187 4.65504 11.577V15.528C4.65504 15.528 4.28604 17.919 9.064 17.919C13.637 17.919 13.352 15.936 13.352 15.936L13.346 13.882H8.983V13.265H15.08C15.08 13.265 18.007 13.597 18.007 8.983C18.007 4.36896 15.452 4.53196 15.452 4.53196ZM11.471 14.968C11.6792 14.968 11.8789 15.0507 12.0261 15.1979C12.1733 15.3451 12.256 15.5448 12.256 15.753C12.256 15.9612 12.1733 16.1608 12.0261 16.308C11.8789 16.4553 11.6792 16.538 11.471 16.538C11.2628 16.538 11.0632 16.4553 10.916 16.308C10.7687 16.1608 10.686 15.9612 10.686 15.753C10.686 15.5448 10.7687 15.3451 10.916 15.1979C11.0632 15.0507 11.2628 14.968 11.471 14.968Z" fill="#FFD03D"/>
</svg>
