<svg width="20" height="19" viewBox="0 0 20 19" fill="none" xmlns="http://www.w3.org/2000/svg">
<path d="M10.0001 11.03C10.9859 11.03 11.7851 10.2308 11.7851 9.245C11.7851 8.2591 10.9859 7.45996 10.0001 7.45996C9.01429 7.45996 8.21509 8.2591 8.21509 9.245C8.21509 10.2308 9.01429 11.03 10.0001 11.03Z" fill="#00D9FF"/>
<path d="M5.00199 12.794L4.60699 12.693C1.67299 11.952 -0.0100098 10.692 -0.0100098 9.241C-0.0100098 7.78899 1.67399 6.52999 4.60699 5.78899L5.00199 5.68899L5.11299 6.07999C5.40953 7.10368 5.78947 8.1014 6.24899 9.063L6.33399 9.241L6.24899 9.419C5.78899 10.382 5.40799 11.38 5.11299 12.404L5.00199 12.794ZM4.42499 6.69899C2.19599 7.32699 0.82699 8.285 0.82699 9.241C0.82699 10.195 2.19499 11.154 4.42499 11.781C4.69799 10.913 5.02799 10.064 5.40999 9.241C5.02522 8.4166 4.69615 7.56738 4.42499 6.69899ZM14.997 12.794L14.887 12.402C14.5897 11.3781 14.2094 10.3801 13.75 9.418L13.665 9.241L13.75 9.062C14.21 8.101 14.589 7.10199 14.887 6.07799L14.997 5.68799L15.392 5.78799C18.327 6.52899 20.009 7.78799 20.009 9.241C20.009 10.693 18.326 11.952 15.392 12.693L14.997 12.794ZM14.587 9.241C14.987 10.107 15.32 10.959 15.574 11.781C17.804 11.154 19.173 10.195 19.173 9.241C19.173 8.285 17.805 7.32799 15.574 6.69899C15.3013 7.56711 14.9716 8.4163 14.587 9.241Z" fill="#00D9FF"/>
<path d="M4.41902 6.695L4.30902 6.305C3.48302 3.397 3.73302 1.314 4.99602 0.587999C6.23102 -0.127001 8.218 0.717999 10.299 2.853L10.583 3.145L10.299 3.436C9.5599 4.20469 8.8843 5.03207 8.279 5.91L8.166 6.072L7.97002 6.088C6.90561 6.1716 5.84978 6.34183 4.81302 6.597L4.41902 6.695ZM6.00102 1.166C5.77702 1.166 5.57902 1.215 5.41202 1.311C4.58402 1.788 4.43802 3.449 5.00802 5.691C5.89902 5.494 6.79802 5.353 7.70402 5.274C8.2285 4.53005 8.8007 3.8209 9.417 3.151C8.114 1.884 6.88402 1.166 6.00102 1.166ZM13.998 18.15C12.81 18.15 11.284 17.254 9.7 15.628L9.417 15.337L9.7 15.047C10.4393 14.2771 11.1151 13.4487 11.721 12.57L11.833 12.41L12.027 12.391C13.0918 12.3089 14.148 12.1393 15.185 11.884L15.58 11.784L15.691 12.175C16.513 15.081 16.264 17.167 15.003 17.893C14.6969 18.0665 14.3499 18.1553 13.998 18.15ZM10.583 15.33C11.885 16.597 13.116 17.316 13.998 17.316C14.223 17.316 14.421 17.266 14.587 17.171C15.416 16.693 15.563 15.029 14.991 12.787C14.101 12.985 13.201 13.127 12.293 13.206C11.7707 13.9511 11.1995 14.6607 10.583 15.33Z" fill="#00D9FF"/>
<path d="M15.58 6.69495L15.185 6.59595C14.1481 6.33998 13.0918 6.16974 12.027 6.08695L11.833 6.06995L11.721 5.90795C11.116 5.02953 10.44 4.20211 9.7 3.43395L9.417 3.14295L9.7 2.85295C11.78 0.71895 13.766 -0.126051 15.003 0.587949C16.265 1.31495 16.516 3.39795 15.691 6.30495L15.58 6.69495ZM12.293 5.27395C13.247 5.35895 14.151 5.50195 14.991 5.69095C15.562 3.44895 15.416 1.78795 14.587 1.30995C13.763 0.83295 12.212 1.56295 10.583 3.15095C11.199 3.82095 11.771 4.52895 12.293 5.27395ZM6.00101 18.1499C5.64914 18.155 5.30227 18.0663 4.99601 17.8929C3.73301 17.1669 3.48301 15.0819 4.30801 12.1749L4.41601 11.7839L4.81101 11.8839C5.77501 12.1269 6.83701 12.2979 7.96901 12.3909L8.163 12.4099L8.276 12.5699C8.88 13.4479 9.556 14.277 10.296 15.047L10.58 15.3369L10.296 15.6279C8.713 17.2549 7.18701 18.1499 6.00101 18.1499ZM5.00801 12.7879C4.43801 15.0299 4.58401 16.6939 5.41201 17.1719C6.23701 17.6419 7.78301 16.9169 9.417 15.3299C8.801 14.6598 8.2288 13.9507 7.70401 13.2069C6.7971 13.1267 5.89648 12.9868 5.00801 12.7879Z" fill="#00D9FF"/>
<path d="M9.9999 13.3128C9.3129 13.3128 8.6079 13.2838 7.89991 13.2248L7.70391 13.2078L7.59091 13.0458C7.19167 12.4717 6.81602 11.8815 6.46491 11.2768C6.1164 10.6704 5.79247 10.0502 5.49391 9.41776L5.40991 9.24076L5.49391 9.06176C5.79291 8.42976 6.11591 7.80972 6.46491 7.20372C6.81191 6.60772 7.19091 6.01172 7.59091 5.43372L7.70391 5.27372L7.89991 5.25572C9.2968 5.13872 10.701 5.13872 12.0979 5.25572L12.2919 5.27472L12.4049 5.43472C13.2047 6.58348 13.9071 7.79703 14.5049 9.06276L14.5879 9.24176L14.5049 9.41876C13.9088 10.6853 13.2063 11.899 12.4049 13.0468L12.2919 13.2088L12.0979 13.2258C11.3919 13.2828 10.6859 13.3128 9.9999 13.3128ZM8.1659 12.4088C9.4009 12.5018 10.5989 12.5018 11.8329 12.4088C12.5218 11.4 13.1342 10.341 13.6649 9.24076C13.1361 8.13946 12.5236 7.08038 11.8329 6.07272C10.6124 5.97872 9.3864 5.97872 8.1659 6.07272C7.47465 7.08002 6.86217 8.13916 6.33391 9.24076C6.86579 10.3404 7.47812 11.3993 8.1659 12.4088Z" fill="#00D9FF"/>
</svg>
