<svg width="10" height="12" viewBox="0 0 10 12" fill="none" xmlns="http://www.w3.org/2000/svg">
<path d="M4.4949 0.986822C5.9549 0.0568221 7.9734 0.490822 8.9954 1.95383C9.238 2.29329 9.4104 2.67779 9.5024 3.08477C9.5945 3.49174 9.6043 3.913 9.5314 4.32383C9.4605 4.71613 9.3108 5.08999 9.0914 5.42283C9.4114 6.03333 9.5189 6.73283 9.3964 7.41133C9.3242 7.81404 9.1687 8.19725 8.93995 8.53646C8.7112 8.87568 8.41419 9.16343 8.0679 9.38133L5.5044 11.0154C4.0444 11.9454 2.0259 11.5119 1.0034 10.0489C0.760919 9.70921 0.588699 9.32459 0.496829 8.91753C0.404959 8.51047 0.395289 8.08917 0.468399 7.67833C0.539299 7.28603 0.688979 6.91217 0.908399 6.57933C0.588149 5.96895 0.480639 5.26919 0.602899 4.59083C0.675159 4.18806 0.830679 3.80481 1.05953 3.46559C1.28837 3.12637 1.5855 2.83865 1.9319 2.62083L4.4949 0.986822ZM3.0244 10.1249C3.4154 10.2699 3.8409 10.2909 4.2444 10.1864C4.4289 10.1369 4.6044 10.0599 4.7654 9.95733L7.3294 8.32383C7.53768 8.19275 7.71632 8.01965 7.8539 7.81561C7.99148 7.61156 8.08497 7.38106 8.1284 7.13883C8.17221 6.89179 8.16625 6.6385 8.11087 6.3938C8.05549 6.1491 7.9518 5.91792 7.8059 5.71383C7.56836 5.37143 7.23148 5.11017 6.84074 4.96532C6.45 4.82046 6.02422 4.799 5.6209 4.90383C5.4364 4.95333 5.2609 5.03033 5.0999 5.13283L4.1214 5.75583C4.07288 5.78667 4.01994 5.80994 3.9644 5.82483C3.88562 5.84522 3.80357 5.84974 3.72303 5.83811C3.64249 5.82649 3.56507 5.79896 3.49527 5.75713C3.42547 5.7153 3.36469 5.66 3.31647 5.59445C3.26825 5.5289 3.23355 5.45441 3.2144 5.37533C3.19777 5.30141 3.19607 5.22491 3.2094 5.15033C3.22247 5.0775 3.25056 5.00819 3.29188 4.94682C3.3332 4.88544 3.38684 4.83334 3.4494 4.79383L6.0139 3.15983C6.06242 3.12897 6.11536 3.1057 6.1709 3.09083C6.29249 3.05926 6.42084 3.06578 6.5386 3.10951C6.65637 3.15323 6.75787 3.23206 6.8294 3.33533C6.9079 3.44633 6.9444 3.58133 6.9329 3.71633L6.9239 3.81133L7.0194 3.84033C7.37965 3.94928 7.71867 4.11888 8.0219 4.34183L8.1534 4.43783L8.2014 4.29033C8.2274 4.21233 8.2479 4.13233 8.2629 4.05133C8.30678 3.80433 8.3009 3.55105 8.2456 3.30635C8.19031 3.06166 8.08672 2.83046 7.9409 2.62633C7.70335 2.2838 7.36641 2.02242 6.97557 1.87747C6.58474 1.73253 6.15885 1.71102 5.7554 1.81583C5.57107 1.86513 5.39536 1.94236 5.2344 2.04483L2.6699 3.67833C2.46141 3.80928 2.28257 3.98232 2.14481 4.18638C2.00705 4.39043 1.91341 4.621 1.8699 4.86333C1.82606 5.11036 1.83201 5.36366 1.88739 5.60836C1.94277 5.85306 2.04647 6.08424 2.1924 6.28833C2.43002 6.63076 2.76699 6.89205 3.15781 7.0369C3.54864 7.18175 3.9745 7.20319 4.3779 7.09833C4.5624 7.04883 4.7379 6.97183 4.8989 6.86983L5.8769 6.24583C5.9259 6.21533 5.9789 6.19183 6.0344 6.17733C6.11317 6.157 6.1952 6.15254 6.27572 6.16419C6.35624 6.17585 6.43363 6.20338 6.50342 6.24521C6.5732 6.28703 6.63397 6.3423 6.68221 6.40781C6.73045 6.47333 6.76518 6.54777 6.7844 6.62683C6.8014 6.70033 6.8029 6.77683 6.7899 6.85133C6.77668 6.92423 6.74843 6.99357 6.70694 7.05495C6.66544 7.11633 6.61162 7.16839 6.5489 7.20783L3.9854 8.84233C3.93687 8.87304 3.88392 8.89614 3.8284 8.91083C3.70686 8.94252 3.57852 8.93611 3.46075 8.89247C3.34297 8.84883 3.24144 8.77006 3.1699 8.66683C3.09147 8.55604 3.05481 8.42107 3.0664 8.28583L3.0749 8.19083L2.9799 8.16183C2.61963 8.05293 2.28059 7.88333 1.9774 7.66033L1.8459 7.56433L1.7979 7.71183C1.77191 7.78998 1.75136 7.86984 1.7364 7.95083C1.69255 8.19783 1.69844 8.4511 1.75373 8.69579C1.80903 8.94048 1.9126 9.17168 2.0584 9.37583C2.29584 9.71836 2.63267 9.97979 3.0234 10.1249" fill="#FF3E00"/>
</svg>
