<svg width="20" height="14" viewBox="0 0 20 14" fill="none" xmlns="http://www.w3.org/2000/svg">
<path d="M16.5 4.51008C15.7501 4.25179 15.0881 3.78737 14.59 3.17008C14.041 2.48231 13.3421 1.92922 12.5465 1.5531C11.7509 1.17699 10.8799 0.987826 10 1.00008C8.81637 0.916256 7.64458 1.28133 6.71801 2.02259C5.79143 2.76385 5.17804 3.82692 5 5.00008C5.35067 4.41333 5.87845 3.95295 6.50739 3.6852C7.13633 3.41745 7.834 3.35614 8.5 3.51008C9.24869 3.77589 9.90958 4.24301 10.41 4.86008C10.962 5.54236 11.6623 6.08974 12.4577 6.46057C13.2531 6.8314 14.1226 7.01592 15 7.00008C16.1836 7.08391 17.3554 6.71884 18.282 5.97757C19.2086 5.23631 19.822 4.17325 20 3.00008C19.6557 3.59385 19.1296 4.06118 18.4994 4.33308C17.8691 4.60498 17.1682 4.66703 16.5 4.51008ZM3.5 9.49008C4.24995 9.74837 4.91192 10.2128 5.41 10.8301C5.95895 11.5178 6.65794 12.0709 7.4535 12.4471C8.24906 12.8232 9.1201 13.0123 10 13.0001C11.1836 13.0839 12.3554 12.7188 13.282 11.9776C14.2086 11.2363 14.822 10.1732 15 9.00008C14.6493 9.58684 14.1215 10.0472 13.4926 10.315C12.8637 10.5827 12.166 10.644 11.5 10.4901C10.7513 10.2243 10.0904 9.75715 9.59 9.14008C9.03656 8.4595 8.33595 7.91332 7.54091 7.54264C6.74587 7.17197 5.8771 6.98646 5 7.00008C3.81637 6.91626 2.64458 7.28133 1.71801 8.02259C0.791428 8.76385 0.178042 9.82692 0 11.0001C0.344307 10.4063 0.870408 9.93898 1.50063 9.66708C2.13086 9.39518 2.83181 9.33313 3.5 9.49008Z" fill="#38BDF8"/>
</svg>
