<svg width="24" height="24" viewBox="0 0 24 24" fill="none" xmlns="http://www.w3.org/2000/svg">
<circle cx="12" cy="12" r="12" fill="#5865F2"/>
<path fill-rule="evenodd" clip-rule="evenodd" d="M15.647 17.3494C15.647 17.3494 15.1745 16.7876 14.7822 16.2878C15.1076 16.196 15.395 16.0832 15.647 15.9606L15.5301 15.5535C13.8867 16.2129 12.0867 16.387 10.3451 16.0537C9.68634 15.9247 9.04082 15.7358 8.41669 15.4892L8.33795 15.9112C8.59187 16.042 8.88409 16.1635 9.2179 16.263C8.8242 16.7587 8.33795 17.3494 8.33795 17.3494C5.43838 17.2571 4.3374 15.3611 4.3374 15.3611C4.3374 11.1491 6.22716 7.73573 6.22716 7.73573C8.11692 6.32163 9.91413 6.36156 9.91413 6.36156L10.3465 7.02937C10.4253 7.01698 10.4916 7.00321 10.5703 7.00321C11.5794 6.86767 12.596 6.877 13.5904 7.02567L14.086 6.36294C14.086 6.36294 15.8846 6.32301 17.7729 7.73711C17.7729 7.73711 19.6627 11.1505 19.6627 15.3625C19.6627 15.3625 18.5479 17.2571 15.647 17.3494ZM8.20674 12.694C8.20674 11.8954 8.7966 11.2414 9.54532 11.2414C10.2927 11.2414 10.8977 11.894 10.8825 12.694C10.8825 13.4899 10.2927 14.1467 9.54532 14.1467C8.81041 14.1467 8.20674 13.4899 8.20674 12.694ZM12.9974 12.694C12.9974 11.8954 13.5873 11.2414 14.336 11.2414C15.0834 11.2414 15.6718 11.894 15.6732 12.694C15.6732 13.4899 15.0834 14.1467 14.336 14.1467C13.6011 14.1467 12.9974 13.4899 12.9974 12.694Z" fill="white"/>
</svg>
