<svg width="14" height="20" viewBox="0 0 14 20" fill="none" xmlns="http://www.w3.org/2000/svg">
<path d="M10.3321 6.66788C11.1984 6.64188 12.0204 6.27949 12.624 5.65755C13.2275 5.03561 13.5651 4.20304 13.5651 3.33638C13.5651 2.46973 13.2275 1.63715 12.624 1.01521C12.0204 0.393273 11.1984 0.0308828 10.3321 0.00488281H7.00012V6.66788H10.3321Z" fill="#FF7262"/>
<path d="M3.66807 0.00488281C2.80181 0.0308828 1.97974 0.393273 1.37618 1.01521C0.772629 1.63715 0.435059 2.46973 0.435059 3.33638C0.435059 4.20304 0.772629 5.03561 1.37618 5.65755C1.97974 6.27949 2.80181 6.64188 3.66807 6.66788H7.00008V0.00488281H3.66807Z" fill="#F24E1E"/>
<path d="M3.66809 6.66797C2.79426 6.68311 1.96133 7.04087 1.34871 7.66419C0.736102 8.28749 0.392822 9.12649 0.392822 10.0005C0.392822 10.8745 0.736102 11.7135 1.34871 12.3368C1.96133 12.9601 2.79426 13.3178 3.66809 13.333H7.0001V6.66797H3.66809Z" fill="#A259FF"/>
<path d="M3.66811 13.333C2.79854 13.3543 1.97176 13.7147 1.36428 14.3372C0.756788 14.9598 0.416748 15.7952 0.416748 16.665C0.416748 17.5348 0.756788 18.3702 1.36428 18.9927C1.97176 19.6153 2.79854 19.9757 3.66811 19.997C4.55182 19.9965 5.39922 19.6451 6.02392 19.0201C6.64872 18.3952 6.99982 17.5477 7.00012 16.664V13.333H3.66811Z" fill="#0ACF83"/>
<path d="M10.332 13.332C12.1722 13.332 13.664 11.8402 13.664 10C13.664 8.1598 12.1722 6.66797 10.332 6.66797C8.4918 6.66797 7 8.1598 7 10C7 11.8402 8.4918 13.332 10.332 13.332Z" fill="#1ABCFE"/>
</svg>
