<svg width="23" height="23" viewBox="0 0 23 23" fill="none" xmlns="http://www.w3.org/2000/svg">
<circle cx="11.5" cy="11.5" r="11.5" fill="#2868B2"/>
<path d="M5.21393 16.999H7.91019V8.31547H5.21393V16.999Z" fill="white"/>
<path d="M5.45752 6.67137C5.75046 6.96484 6.14777 7.1297 6.56206 7.1297C6.97634 7.1297 7.37366 6.96484 7.6666 6.67137C7.95954 6.3779 8.12412 5.97988 8.12412 5.56485C8.12412 5.14983 7.95954 4.7518 7.6666 4.45833C7.37366 4.16487 6.97634 4 6.56206 4C6.14777 4 5.75046 4.16487 5.45752 4.45833C5.16457 4.7518 5 5.14983 5 5.56485C5 5.97988 5.16457 6.3779 5.45752 6.67137Z" fill="white"/>
<path d="M15.3068 16.999H18L17.999 12.2377C17.999 9.89852 17.4955 8.10117 14.7669 8.10117C13.4581 8.10117 12.5782 8.82092 12.22 9.50327H12.1826V8.31649H9.59939V17H12.2906V12.7058C12.2906 11.5726 12.5035 10.4747 13.9062 10.4747C15.2886 10.4747 15.3068 11.7697 15.3068 12.7765V16.999Z" fill="white"/>
</svg>
