<svg width="44" height="34" viewBox="0 0 44 34" fill="none" xmlns="http://www.w3.org/2000/svg">
<path d="M3.5 33.5H40.5C42.433 33.5 44 31.933 44 30V4C44 2.067 42.433 0.5 40.5 0.5H3.5C1.567 0.5 0 2.067 0 4V30C0 31.933 1.567 33.5 3.5 33.5Z" fill="#E0E0E0"/>
<path d="M24 33.5H40.5C42.433 33.5 44 31.933 44 30V4C44 2.067 42.433 0.5 40.5 0.5H3.5C1.567 0.5 0 2.067 0 4L24 33.5Z" fill="#D9D9D9"/>
<path d="M4.74512 33.5H40.5001C42.4331 33.5 44.0001 31.933 44.0001 30V4.5L4.74512 33.5Z" fill="#EEEEEE"/>
<path d="M23.745 33.5H40.5C42.433 33.5 44 31.933 44 30V4.5L16.771 24.616L23.745 33.5Z" fill="#E0E0E0"/>
<path d="M40.5 2.5H3.5C1.567 2.5 0 2.067 0 4V30C0 31.933 1.567 33.5 3.5 33.5H5V5H39V33.5H40.5C42.433 33.5 44 31.933 44 30V4C44 2.067 42.433 2.5 40.5 2.5Z" fill="#CA3737"/>
<path d="M40.5 0.5H22H3.5C1.567 0.5 0 2.036 0 4C0 5.206 1.518 6.258 1.518 6.258L22 20.756L42.482 6.259C42.482 6.259 44 5.206 44 4.001C44 2.036 42.433 0.5 40.5 0.5Z" fill="#F5F5F5"/>
<path d="M41.246 0.582001L22 14L2.754 0.582001C1.18 0.919001 0 2.297 0 4C0 5.206 1.518 6.258 1.518 6.258L22 20.756L42.482 6.259C42.482 6.259 44 5.206 44 4.001C44 2.297 42.82 0.919001 41.246 0.582001Z" fill="#E84F4B"/>
</svg>
