<svg width="20" height="20" viewBox="0 0 20 20" fill="none" xmlns="http://www.w3.org/2000/svg">
<path d="M10.01 0.0189819C4.51504 0.0189819 0.019043 4.51498 0.019043 10.01C0.019043 15.504 4.51504 20 10.01 20C15.504 20 20 15.504 20 10.01C20 4.51498 15.554 0.0189819 10.01 0.0189819ZM14.605 14.455C14.406 14.754 14.056 14.855 13.755 14.656C11.406 13.206 8.45904 12.906 4.96204 13.705C4.61404 13.807 4.31404 13.557 4.21404 13.256C4.11304 12.906 4.36304 12.608 4.66404 12.507C8.45904 11.657 11.757 12.008 14.354 13.607C14.704 13.756 14.754 14.155 14.605 14.455ZM15.805 11.708C15.554 12.057 15.105 12.207 14.754 11.957C12.057 10.311 7.96204 9.80898 4.81504 10.809C4.41704 10.91 3.96504 10.709 3.86604 10.311C3.76504 9.90898 3.96604 9.45898 4.36504 9.35898C8.01104 8.26098 12.508 8.81098 15.604 10.71C15.904 10.859 16.054 11.358 15.805 11.708ZM15.904 8.90898C12.707 7.01198 7.36204 6.81198 4.31404 7.76298C4.08225 7.82977 3.83363 7.8047 3.61984 7.69296C3.40606 7.58123 3.24354 7.39142 3.16604 7.16298C3.09806 6.93091 3.12244 6.68154 3.23408 6.46702C3.34572 6.25251 3.53597 6.08946 3.76504 6.01198C7.31204 4.96298 13.157 5.16198 16.854 7.36298C17.303 7.61198 17.453 8.21198 17.203 8.66098C16.953 9.01098 16.354 9.15898 15.904 8.90898Z" fill="#1BD75F"/>
</svg>
