<svg width="20" height="20" viewBox="0 0 20 20" fill="none" xmlns="http://www.w3.org/2000/svg">
<path d="M6.21018 15.32L5.00018 14.8C5.18109 15.1707 5.46573 15.4809 5.81954 15.6929C6.17335 15.9049 6.58111 16.0096 6.99329 15.9943C7.40548 15.979 7.80436 15.8444 8.1415 15.6068C8.47863 15.3692 8.73952 15.0387 8.89249 14.6557C9.04545 14.2726 9.0839 13.8534 9.00317 13.4489C8.92244 13.0444 8.72601 12.6721 8.43773 12.3771C8.14944 12.0821 7.78171 11.8771 7.37918 11.7871C6.97665 11.6971 6.55665 11.7259 6.17018 11.87L7.45018 12.4C7.83739 12.5618 8.14448 12.8708 8.30389 13.259C8.4633 13.6472 8.46196 14.0828 8.30018 14.47C8.1384 14.8572 7.82942 15.1643 7.44122 15.3237C7.05302 15.4831 6.61739 15.4818 6.23018 15.32H6.21018Z" fill="url(#paint0_linear_140_65)"/>
<path d="M10.0002 2.37956e-05C7.4585 -0.00551763 5.01008 0.956979 3.15259 2.69188C1.2951 4.42678 0.167923 6.80388 0.000178077 9.34002L5.38018 11.55C5.52716 11.4523 5.68486 11.3718 5.85018 11.31C6.2128 11.1543 6.60592 11.0825 7.00018 11.1L9.44018 7.54002C9.44018 6.78845 9.66304 6.05376 10.0806 5.42886C10.4981 4.80395 11.0916 4.31689 11.786 4.02928C12.4803 3.74167 13.2444 3.66642 13.9815 3.81304C14.7186 3.95966 15.3957 4.32158 15.9272 4.85302C16.4586 5.38446 16.8205 6.06155 16.9672 6.79868C17.1138 7.53581 17.0385 8.29986 16.7509 8.99422C16.4633 9.68858 15.9763 10.2821 15.3513 10.6996C14.7264 11.1172 13.9917 11.34 13.2402 11.34H13.1602L9.65018 13.84C9.66616 14.5264 9.42667 15.1943 8.97813 15.7141C8.52959 16.2339 7.90399 16.5687 7.22265 16.6534C6.54131 16.7381 5.85279 16.5667 5.29063 16.1725C4.72847 15.7783 4.33274 15.1894 4.18018 14.52L0.410178 12.92C0.950589 14.6901 1.9716 16.2754 3.35956 17.4996C4.74751 18.7238 6.44797 19.5388 8.27165 19.854C10.0953 20.1691 11.9707 19.9719 13.689 19.2845C15.4072 18.597 16.901 17.4462 18.0041 15.9601C19.1071 14.4741 19.7761 12.7111 19.9367 10.8673C20.0972 9.02361 19.7429 7.1715 18.9133 5.51717C18.0836 3.86284 16.8112 2.4712 15.2376 1.49713C13.6639 0.523069 11.8509 0.0048036 10.0002 2.37956e-05Z" fill="url(#paint1_linear_140_65)"/>
<path d="M15.7902 7.50002C15.7961 6.9984 15.6528 6.50633 15.3785 6.08635C15.1041 5.66637 14.7111 5.33743 14.2493 5.14133C13.7876 4.94523 13.278 4.89083 12.7852 4.98503C12.2925 5.07924 11.8389 5.3178 11.4821 5.67041C11.1252 6.02301 10.8813 6.47373 10.7812 6.96531C10.6811 7.45688 10.7295 7.96711 10.92 8.43116C11.1106 8.8952 11.4348 9.29212 11.8515 9.57147C12.2682 9.85082 12.7585 9.99999 13.2602 10C13.9252 9.99749 14.5627 9.73422 15.0358 9.26677C15.5089 8.79933 15.7797 8.16499 15.7902 7.50002ZM11.3702 7.50002C11.3722 7.12467 11.4853 6.75831 11.6952 6.44718C11.9052 6.13604 12.2026 5.89407 12.55 5.7518C12.8973 5.60952 13.279 5.57332 13.6469 5.64776C14.0148 5.7222 14.3525 5.90394 14.6172 6.17005C14.8819 6.43616 15.0619 6.77473 15.1344 7.14301C15.2069 7.5113 15.1687 7.89282 15.0246 8.23941C14.8805 8.58601 14.6369 8.88216 14.3247 9.0905C14.0125 9.29883 13.6455 9.41002 13.2702 9.41002C13.019 9.41004 12.7703 9.36024 12.5384 9.26351C12.3066 9.16677 12.0962 9.02503 11.9196 8.84647C11.7429 8.66792 11.6033 8.4561 11.509 8.22327C11.4147 7.99043 11.3675 7.74121 11.3702 7.49002V7.50002Z" fill="url(#paint2_linear_140_65)"/>
<path fill-rule="evenodd" clip-rule="evenodd" d="M5.38018 11.55L0.000178077 9.34002C-0.024868 10.1094 0.0220676 11.9026 0.410178 12.92L4.18018 14.52C4.33274 15.1894 4.72847 15.7783 5.29063 16.1725C5.85279 16.5667 6.54131 16.7381 7.22265 16.6534C7.90399 16.5687 8.52959 16.2339 8.97813 15.7141C9.42667 15.1943 9.66616 14.5264 9.65018 13.84L13.1602 11.34H13.2402C13.9917 11.34 14.7264 11.1172 15.3513 10.6996C15.9763 10.2821 16.4633 9.68858 16.7509 8.99422C17.0385 8.29986 17.1138 7.53581 16.9672 6.79868C16.8205 6.06155 16.4586 5.38446 15.9272 4.85302C15.3957 4.32158 14.7186 3.95966 13.9815 3.81304C13.2444 3.66642 12.4803 3.74167 11.786 4.02928C11.0916 4.31689 10.4981 4.80395 10.0806 5.42886C9.66304 6.05376 9.44018 6.78845 9.44018 7.54002L7.00018 11.1C6.60592 11.0825 6.2128 11.1543 5.85018 11.31C5.68486 11.3718 5.52716 11.4523 5.38018 11.55ZM5.00018 14.8L6.21018 15.32H6.23018C6.61739 15.4818 7.05302 15.4831 7.44122 15.3237C7.82942 15.1643 8.1384 14.8572 8.30018 14.47C8.46196 14.0828 8.4633 13.6472 8.30389 13.259C8.14448 12.8708 7.83739 12.5618 7.45018 12.4L6.17018 11.87C6.55665 11.7259 6.97665 11.6971 7.37918 11.7871C7.78171 11.8771 8.14944 12.0821 8.43773 12.3771C8.72601 12.6721 8.92244 13.0444 9.00317 13.4489C9.0839 13.8534 9.04545 14.2726 8.89249 14.6557C8.73952 15.0387 8.47863 15.3692 8.1415 15.6068C7.80436 15.8444 7.40548 15.979 6.99329 15.9943C6.58111 16.0096 6.17335 15.9049 5.81954 15.6929C5.46573 15.4809 5.18109 15.1707 5.00018 14.8ZM15.3785 6.08635C15.6528 6.50633 15.7961 6.9984 15.7902 7.50002C15.7797 8.16499 15.5089 8.79933 15.0358 9.26677C14.5627 9.73422 13.9252 9.99749 13.2602 10C12.7585 9.99999 12.2682 9.85082 11.8515 9.57147C11.4348 9.29212 11.1106 8.8952 10.92 8.43116C10.7295 7.96711 10.6811 7.45688 10.7812 6.96531C10.8813 6.47373 11.1252 6.02301 11.4821 5.67041C11.8389 5.3178 12.2925 5.07924 12.7852 4.98503C13.278 4.89083 13.7876 4.94523 14.2493 5.14133C14.7111 5.33743 15.1041 5.66637 15.3785 6.08635Z" fill="white"/>
<defs>
<linearGradient id="paint0_linear_140_65" x1="9.98709" y1="0" x2="9.98709" y2="20" gradientUnits="userSpaceOnUse">
<stop stop-color="#111D2E"/>
<stop offset="1" stop-color="#1386B7"/>
</linearGradient>
<linearGradient id="paint1_linear_140_65" x1="9.98709" y1="0" x2="9.98709" y2="20" gradientUnits="userSpaceOnUse">
<stop stop-color="#111D2E"/>
<stop offset="1" stop-color="#1386B7"/>
</linearGradient>
<linearGradient id="paint2_linear_140_65" x1="9.98709" y1="0" x2="9.98709" y2="20" gradientUnits="userSpaceOnUse">
<stop stop-color="#111D2E"/>
<stop offset="1" stop-color="#1386B7"/>
</linearGradient>
</defs>
</svg>
