<svg width="448" height="717" viewBox="0 0 448 717" fill="none" xmlns="http://www.w3.org/2000/svg">
<g clip-path="url(#clip0_25_2)">
<rect width="448" height="717" fill="#FEC837"/>
<path d="M66.5652 608.294L-109.04 608.45V759.323H559V609.659H362.531C361.623 586.123 342.266 567.318 318.507 567.318C312.125 567.318 306.066 568.685 300.59 571.126C297.767 559.784 287.543 551.369 275.327 551.369C275.317 551.369 275.308 551.37 275.298 551.37C275.281 550.899 275.248 550.433 275.191 549.974C275.277 549.32 275.327 548.657 275.327 547.979C275.327 539.294 268.286 532.253 259.601 532.253C257.614 532.253 255.721 532.637 253.971 533.309C253.075 527.302 248.8 522.4 243.127 520.628L235.441 500.346H222.987L215.438 520.268C214.465 520.045 213.457 519.916 212.418 519.916C204.962 519.916 198.918 525.96 198.918 533.416C198.918 534.086 198.985 534.738 199.082 535.381C199.061 535.528 199.032 535.672 199.015 535.82C196.84 535.014 194.5 534.552 192.045 534.552C180.957 534.552 171.968 543.528 171.941 554.609C171.248 554.495 170.542 554.42 169.816 554.42C164.623 554.42 160.159 557.494 158.115 561.917C151.164 557.333 142.843 554.658 133.894 554.658C109.557 554.658 89.8273 574.388 89.8273 598.725C89.8273 599.371 89.8497 600.011 89.8788 600.65C89.8688 600.859 89.8697 601.071 89.863 601.281C87.563 597.742 83.5861 595.396 79.0525 595.396C71.9289 595.396 65.5207 602.418 65.5207 609.542" fill="white"/>
<path d="M327.878 545.759C327.734 543.357 325.741 541.453 323.303 541.453C321.328 541.453 319.645 542.702 319 544.453C318.153 543.52 316.93 542.934 315.57 542.934C313.012 542.934 310.939 545.008 310.939 547.566C310.939 549.325 311.921 550.857 313.367 551.64C312.665 552.446 312.237 553.498 312.237 554.651C312.237 557.183 314.29 559.235 316.822 559.235C317.698 559.235 318.515 558.989 319.212 558.564C319.217 558.568 319.224 558.571 319.23 558.575C319.187 558.788 319.163 559.009 319.163 559.235C319.163 561.07 320.651 562.556 322.485 562.556C324.318 562.556 325.806 561.069 325.806 559.235C325.806 558.967 325.77 558.707 325.71 558.457C326.279 558.619 326.878 558.708 327.498 558.708C331.078 558.708 333.98 555.807 333.98 552.227C333.981 548.776 331.281 545.956 327.878 545.759Z" fill="white"/>
<path d="M167.533 516.848C167.389 514.446 165.396 512.542 162.958 512.542C160.983 512.542 159.3 513.791 158.655 515.542C157.808 514.609 156.585 514.023 155.225 514.023C152.667 514.023 150.594 516.097 150.594 518.655C150.594 520.415 151.576 521.946 153.022 522.73C152.32 523.535 151.893 524.588 151.893 525.74C151.893 528.272 153.946 530.324 156.478 530.324C157.353 530.324 158.171 530.078 158.867 529.653C158.873 529.657 158.88 529.66 158.886 529.664C158.842 529.877 158.819 530.098 158.819 530.324C158.819 532.159 160.307 533.646 162.14 533.646C163.975 533.646 165.462 532.158 165.462 530.324C165.462 530.056 165.427 529.796 165.366 529.546C165.934 529.709 166.534 529.798 167.154 529.798C170.734 529.798 173.636 526.896 173.636 523.316C173.635 519.866 170.936 517.045 167.533 516.848Z" fill="white"/>
<path d="M196.389 505.391C196.304 503.973 195.127 502.849 193.687 502.849C192.52 502.849 191.526 503.587 191.146 504.62C190.646 504.069 189.924 503.723 189.12 503.723C187.609 503.723 186.385 504.948 186.385 506.458C186.385 507.498 186.965 508.402 187.818 508.865C187.403 509.34 187.152 509.961 187.152 510.643C187.152 512.138 188.364 513.35 189.859 513.35C190.376 513.35 190.859 513.205 191.27 512.954C191.273 512.956 191.277 512.958 191.281 512.96C191.255 513.087 191.241 513.217 191.241 513.35C191.241 514.434 192.12 515.312 193.203 515.312C194.287 515.312 195.165 514.434 195.165 513.35C195.165 513.191 195.144 513.038 195.109 512.89C195.444 512.987 195.798 513.039 196.165 513.039C198.279 513.039 199.992 511.326 199.992 509.212C199.993 507.174 198.399 505.508 196.389 505.391Z" fill="white"/>
<path d="M250.439 437.424H202.297C202.297 437.424 186.512 453.964 188.683 478.304C188.683 478.304 193.147 473.255 196.693 470.633C197.338 470.155 198.227 470.702 198.103 471.495C197.25 476.992 197.983 493.486 226.367 521.507C254.752 493.486 255.484 476.992 254.632 471.495C254.508 470.702 255.397 470.155 256.042 470.633C259.588 473.256 264.052 478.305 264.052 478.305C266.225 453.964 250.439 437.424 250.439 437.424Z" fill="url(#paint0_linear_25_2)"/>
<path d="M226.23 418.66V418.675C226.23 418.675 195.403 443.142 226.23 485.285V485.27C257.058 443.127 226.23 418.66 226.23 418.66Z" fill="#FFE697"/>
<path d="M191.638 426.379L195.138 433.131C196.628 436.006 199.596 437.811 202.835 437.811H226.038H226.075H249.278C252.516 437.811 255.484 436.006 256.975 433.131L260.475 426.379H191.638Z" fill="#949494" stroke="#424242" stroke-width="2" stroke-miterlimit="10"/>
<path d="M181.719 413.572L186.228 422.27C188.148 425.974 191.971 428.3 196.144 428.3H226.034H226.081H255.971C260.143 428.3 263.968 425.974 265.887 422.27L270.396 413.572H181.719Z" fill="#4D4D4D" stroke="#424242" stroke-width="2" stroke-miterlimit="10"/>
<path d="M268.816 346.944C268.816 346.944 344.276 372.862 339.477 448.697C339.477 448.697 275.944 383.971 241.363 397.82L268.816 346.944Z" fill="#E02424"/>
<path d="M183.919 346.944C183.919 346.944 108.458 372.862 113.258 448.697C113.258 448.697 176.791 383.971 211.371 397.82L183.919 346.944Z" fill="#E02424"/>
<path d="M262.703 201.966C253.974 180.042 242.078 158.643 226.045 139L226.034 139.087L226.022 139C210.154 158.441 198.345 179.601 189.641 201.286C206.607 197.23 232.218 194.489 262.703 201.966Z" fill="#E02424"/>
<path d="M263.703 204.539L263.712 204.542L262.703 201.965C222.335 191.605 189.64 201.285 189.64 201.285L188.359 204.542L188.364 204.54C155.004 290.917 170.129 384.683 175.493 411.155C176.358 415.419 180.116 418.473 184.467 418.473H190.167H262.498H267.598C271.949 418.473 275.708 415.419 276.572 411.155C281.935 384.683 297.063 290.917 263.703 204.539Z" fill="white"/>
<path d="M224.536 302.727C241.63 302.727 255.487 288.87 255.487 271.776C255.487 254.682 241.63 240.824 224.536 240.824C207.442 240.824 193.584 254.682 193.584 271.776C193.584 288.87 207.442 302.727 224.536 302.727Z" fill="#043146" stroke="#043146" stroke-width="2" stroke-miterlimit="10"/>
<path d="M234.996 295.141C247.103 290.19 252.904 276.363 247.954 264.256C243.003 252.149 229.175 246.348 217.068 251.299C204.961 256.249 199.16 270.077 204.111 282.184C209.062 294.291 222.89 300.092 234.996 295.141Z" fill="#7C7C7C" stroke="#424242" stroke-width="2" stroke-miterlimit="10"/>
<path d="M224.536 295.236C237.492 295.236 247.996 284.733 247.996 271.776C247.996 258.819 237.492 248.316 224.536 248.316C211.579 248.316 201.075 258.819 201.075 271.776C201.075 284.733 211.579 295.236 224.536 295.236Z" fill="#3EC2E5" stroke="#424242" stroke-width="2" stroke-miterlimit="10"/>
<g opacity="0.08">
<path d="M226.034 252.282C235.324 252.282 243.33 257.696 247.13 265.53C244.393 255.61 235.327 248.314 224.537 248.314C211.581 248.314 201.077 258.818 201.077 271.775C201.077 275.441 201.941 278.896 203.441 281.987C202.891 279.995 202.575 277.908 202.575 275.743C202.574 262.786 213.076 252.282 226.034 252.282Z" fill="black" stroke="#424242" stroke-width="2" stroke-miterlimit="10"/>
</g>
<path d="M226.367 356.391C201.081 413.947 226.367 463.706 226.367 463.706C226.367 463.706 251.654 413.947 226.367 356.391Z" fill="#E02424"/>
<path d="M320.024 50.355C324.504 50.355 328.695 51.585 332.284 53.72C333.141 41.231 343.537 31.363 356.243 31.363C359.34 31.363 362.298 31.956 365.016 33.023C368.477 21.443 379.206 13 391.912 13C407.417 13 419.986 25.569 419.986 41.073C419.986 41.47 419.972 41.863 419.956 42.255C419.966 42.255 419.976 42.254 419.986 42.254C435.49 42.254 448.059 54.823 448.059 70.328C448.059 85.833 435.49 98.401 419.986 98.401C419.018 98.401 418.062 98.352 417.119 98.256H322.642C321.781 98.349 320.908 98.401 320.023 98.401C306.755 98.401 296 87.645 296 74.378C296 61.111 306.756 50.355 320.024 50.355Z" fill="white"/>
<path d="M102.836 62.526C99.7481 62.526 96.8591 63.374 94.3841 64.846C93.7931 56.236 86.6271 49.434 77.8671 49.434C75.9741 49.434 74.1631 49.771 72.4691 50.357C70.0271 42.465 62.6731 36.732 53.9791 36.732C53.3261 36.732 52.6831 36.774 52.0471 36.838C43.9261 37.35 37.1611 42.848 34.8131 50.323C33.1111 49.732 31.2921 49.391 29.3891 49.391C20.6291 49.391 13.4631 56.193 12.8721 64.803C10.3971 63.331 7.50811 62.483 4.4201 62.483C-4.7269 62.483 -12.1409 69.898 -12.1409 79.044C-12.1409 88.19 -4.72589 95.605 4.4201 95.605C5.0301 95.605 5.6321 95.57 6.2251 95.505H31.6611C32.4041 95.592 33.1571 95.648 33.9231 95.648C34.5901 95.648 35.2501 95.614 35.8991 95.548H72.2171C72.5881 95.569 72.9551 95.604 73.3311 95.604C73.7071 95.604 74.0741 95.569 74.4441 95.548H101.03C101.623 95.612 102.225 95.648 102.835 95.648C111.982 95.648 119.396 88.233 119.396 79.087C119.397 69.941 111.982 62.526 102.836 62.526Z" fill="white"/>
</g>
<rect x="15" y="15" width="418" height="687" stroke="#FF8B36" stroke-width="30"/>
<defs>
<linearGradient id="paint0_linear_25_2" x1="226.367" y1="437.425" x2="226.367" y2="521.507" gradientUnits="userSpaceOnUse">
<stop offset="0.0056" stop-color="#F7BD6F"/>
<stop offset="0.4496" stop-color="#F39958"/>
<stop offset="1" stop-color="#ED6637"/>
</linearGradient>
<clipPath id="clip0_25_2">
<rect width="448" height="717" fill="white"/>
</clipPath>
</defs>
</svg>
